<svg xmlns="http://www.w3.org/2000/svg" width="240" height="320" viewBox="0 0 240 320" role="img"><title>Beta2 2 - Ohne Strombegrenzung</title><rect width="240" height="320" fill="#000"/><rect x="0" y="0" width="240" height="40" fill="#050505"/><circle cx="17" cy="25" r="2" fill="#FFFFFF"/><path d="M 12.0 20.2 A 7 7 0 0 1 22.0 20.2" fill="none" stroke="#FFFFFF" stroke-width="2.3"/><path d="M 7.6 16.0 A 13 13 0 0 1 26.4 16.0" fill="none" stroke="#FFFFFF" stroke-width="2.3"/><rect x="158" y="5" width="8" height="20" rx="4" fill="none" stroke="#FFFFFF" stroke-width="1.6"/><circle cx="162" cy="30" r="6" fill="#FFFFFF"/><rect x="160" y="15" width="4" height="16" fill="#FFFFFF"/><text x="232" y="26" font-size="20" fill="#FFFFFF" font-family="'Segoe UI',Arial,sans-serif" font-weight="600" text-anchor="end">35&#176;C</text><rect x="12" y="46" width="224" height="106" rx="9" fill="none" stroke="#55606b" stroke-width="2"/><polygon points="60,66.0 91.3,128.9 28.7,128.9" fill="#FFD400" stroke="#FFD400" stroke-width="7" stroke-linejoin="round"/><rect x="57" y="85.7" width="6" height="17.0" fill="#000"/><circle cx="60" cy="117.0" r="3" fill="#000"/><text x="228" y="86" font-size="34" fill="#FF3222" font-family="'Segoe UI',Arial,sans-serif" font-weight="800" text-anchor="end">230 V</text><text x="228" y="124" font-size="24" fill="#9A9A9A" font-family="'Segoe UI',Arial,sans-serif" font-weight="400" text-anchor="end">230 V</text><rect x="12" y="170" width="68" height="54" rx="9" fill="#0c0c0c" stroke="#FF3222" stroke-width="3"/><polygon points="49.4,178.0 36.5,199.7 46.4,199.7 42.6,216.0 55.5,193.6 45.6,193.6" fill="#FF3222"/><rect x="90" y="170" width="68" height="54" rx="9" fill="#080808" stroke="#3a3f46" stroke-width="2"/><g transform="translate(114.4,184.2) scale(1.6)"><line x1="0" y1="8" x2="9" y2="8" stroke="#3a3f46" stroke-width="1.8"/><path d="M 6 4.8 L 10.5 8 L 6 11.2 Z" fill="#3a3f46"/><line x1="12.5" y1="2" x2="12.5" y2="14" stroke="#3a3f46" stroke-width="2"/></g><rect x="168" y="170" width="68" height="54" rx="9" fill="#0c0c0c" stroke="#1E63D6" stroke-width="3"/><g transform="translate(192.25,185.0) scale(1.5)"><rect x="0" y="7.04" width="13.12" height="8.64" rx="1.8" fill="#1E63D6"/><path d="M 2.624 7.04 v-2.24 a 3.9359999999999995 3.9359999999999995 0 0 1 7.871999999999999 0 v 2.24" fill="none" stroke="#1E63D6" stroke-width="1.7"/></g><rect x="12" y="252" width="68" height="58" rx="9" fill="#0b0b0b" stroke="#3a3f46" stroke-width="2"/><circle cx="29" cy="269" r="11" fill="#2f3339"/><text x="29" y="274" font-size="15" fill="#8A9099" font-family="'Segoe UI',Arial,sans-serif" font-weight="700" text-anchor="middle">1</text><text x="46.0" y="298" font-size="17" fill="#8A9099" font-family="'Segoe UI',Arial,sans-serif" font-weight="500" text-anchor="middle">50 V</text><rect x="90" y="252" width="68" height="58" rx="9" fill="#0b0b0b" stroke="#3a3f46" stroke-width="2"/><circle cx="107" cy="269" r="11" fill="#2f3339"/><text x="107" y="274" font-size="15" fill="#8A9099" font-family="'Segoe UI',Arial,sans-serif" font-weight="700" text-anchor="middle">2</text><text x="124.0" y="298" font-size="17" fill="#8A9099" font-family="'Segoe UI',Arial,sans-serif" font-weight="500" text-anchor="middle">150 V</text><rect x="168" y="252" width="68" height="58" rx="9" fill="#0d1f3c" stroke="#1E63D6" stroke-width="3"/><circle cx="185" cy="269" r="11" fill="#1E63D6"/><text x="185" y="274" font-size="15" fill="#fff" font-family="'Segoe UI',Arial,sans-serif" font-weight="700" text-anchor="middle">3</text><text x="202.0" y="298" font-size="17" fill="#FFFFFF" font-family="'Segoe UI',Arial,sans-serif" font-weight="700" text-anchor="middle">230 V</text><rect x="219" y="264.72" width="10.66" height="7.0200000000000005" rx="1.8" fill="#1E63D6"/><path d="M 221.132 264.72 v-1.8200000000000003 a 3.198 3.198 0 0 1 6.396 0 v 1.8200000000000003" fill="none" stroke="#1E63D6" stroke-width="1.7"/></svg>